<svg width="1024" height="1024" viewBox="0 0 1024 1024" version="1.1" xmlns="http://www.w3.org/2000/svg">
    <path d="M237.919086 918.764983s156.768549-7.835063 260.953234-8.788846c115.758811-1.059109 300.163657 8.788846 300.163657 8.788846l191.318309 21.632731s-298.896823 17.712274-491.481966 17.577692C309.979429 957.843749 35.108571 940.397714 35.108571 940.397714l202.810515-21.632731z" fill="#000000" opacity=".5"></path>
    <path d="M145.211977 78.283337c4.765989-6.606263 13.320777-15.108389 25.78432-13.788891 10.491611 1.111771 27.390537 6.038674 46.650514 12.603977 19.766126 6.73792 43.476114 15.72864 68.312503 25.755063 44.696137 18.039954 93.561417 39.637577 130.323017 57.870628A533.735131 533.735131 0 0 1 512 152.137143c35.064686 0 69.210697 3.3792 102.022583 9.777737 35.989211-17.855634 82.727497-38.654537 125.597988-56.118126 24.608183-10.026423 48.101669-19.017143 67.689326-25.760914 19.078583-6.562377 35.845851-11.498057 46.273097-12.612754 12.501577-1.337051 21.024183 7.267474 25.719955 13.838628 5.12 7.159223 9.371063 16.828709 13.039908 27.4432 7.422537 21.480594 13.80352 50.936686 19.213166 82.970332 10.8544 64.3072 18.230126 141.80352 21.714651 193.536 0.084846 1.287314 0.002926 2.548297-0.231131 3.759543C957.671131 437.39136 971.337143 490.879269 971.337143 547.108571c0 218.135406-205.651383 394.971429-459.337143 394.971429S52.662857 765.243977 52.662857 547.108571c0-56.618423 13.853257-110.454491 38.806674-159.135451a14.587611 14.587611 0 0 1-0.73728-5.696366c3.513783-51.735406 10.959726-129.237577 21.916526-193.550628 5.459383-32.036571 11.901806-61.498514 19.397486-82.98496 3.703954-10.620343 7.998903-20.29568 13.165714-27.457829z" fill="#634011"></path>
    <path d="M315.977143 558.811429c-97.715931 39.07584-170.759314 41.261349-231.131429 13.350034C84.845714 678.227383 213.594697 912.822857 492.982857 912.822857c339.084434 0 435.583269-219.70944 450.56-340.661394-32.291109 30.702446-119.688046 27.542674-217.965714-13.350034-120.741303-50.240366-84.845714-260.388571-196.022857-260.388572s-91.431497 211.543771-213.577143 260.388572z" fill="#FFFFFF"></path>
    <path d="M333.08672 598.522149c67.291429-20.307383 110.574446-74.105417 96.677303-120.159086-13.900069-46.056594-79.716937-66.92864-147.008366-46.624183-67.291429 20.307383-110.574446 74.102491-96.677303 120.159086s79.716937 66.92864 147.008366 46.624183z m382.674651 2.925714c-67.291429-20.307383-110.574446-74.105417-96.677302-120.159086 13.900069-46.056594 79.716937-66.92864 147.008365-46.624183 67.291429 20.307383 110.574446 74.102491 96.677303 120.159086-13.900069 46.056594-79.716937 66.92864-147.008366 46.624183z" fill="#D0BAA0"></path>
    <path d="M362.788571 555.885714c30.69952 0 55.588571-24.889051 55.588572-55.588571s-24.889051-55.588571-55.588572-55.588572-55.588571 24.889051-55.588571 55.588572 24.889051 55.588571 55.588571 55.588571z m324.754286 0c30.69952 0 55.588571-24.889051 55.588572-55.588571s-24.889051-55.588571-55.588572-55.588572-55.588571 24.889051-55.588571 55.588572 24.889051 55.588571 55.588571 55.588571z" fill="#B9D6EC"></path>
    <path d="M377.417143 892.860709c0 11.0592-2.884754 18.733349-7.176777 24.640365-4.514377 6.217143-11.881326 12.220709-23.309166 17.451886C323.341166 945.757623 287.840549 950.857143 244.297143 950.857143s-79.044023-5.09952-102.634057-15.904183c-11.42784-5.231177-18.794789-11.234743-23.309166-17.451886-4.292023-5.907017-7.176777-13.581166-7.176777-24.640365 0-22.870309 12.744411-49.122743 37.443291-70.489235C172.985783 801.294629 206.871406 787.017143 244.297143 787.017143c37.425737 0 71.31136 14.277486 95.676708 35.354331C364.672731 843.737966 377.417143 869.9904 377.417143 892.860709z" fill="#634011"></path>
</svg>